<?xml version="1.0" encoding="UTF-8" standalone="no"?><!DOCTYPE svg PUBLIC "-//W3C//DTD SVG 1.1//EN" "http://www.w3.org/Graphics/SVG/1.1/DTD/svg11.dtd"><svg width="100%" height="100%" viewBox="0 0 2667 2667" version="1.1" xmlns="http://www.w3.org/2000/svg" xmlns:xlink="http://www.w3.org/1999/xlink" xml:space="preserve" xmlns:serif="http://www.serif.com/" style="fill-rule:evenodd;clip-rule:evenodd;stroke-linejoin:round;stroke-miterlimit:2;"><path d="M1733.333,266.667c170.833,0 334.583,67.917 455,188.333l22.917,22.917c120.833,120.833 188.75,284.583 188.75,455c0,100.417 -23.75,198.333 -67.5,286.667c-7.917,15.417 -22.083,27.083 -38.75,32.083l-466.667,140c-16.25,5 -27.083,19.583 -27.083,36.667c0,21.25 17.083,38.333 38.333,38.333l134.167,0c59.583,0 89.167,71.667 47.083,113.75l-93.333,93.333c-7.917,7.917 -17.5,13.333 -27.917,16.667l-337.5,101.25c-16.25,5 -27.083,19.583 -27.083,36.667c0,21.25 17.083,38.333 38.333,38.333c55,0 78.75,65.417 32.5,95.417c-171.25,110.833 -372.083,171.25 -579.167,171.25l-358.333,0l-200,200c-36.667,36.667 -96.667,36.667 -133.333,0c-36.667,-36.667 -36.667,-96.667 0,-133.333l999.583,-1000c36.667,-36.667 36.667,-96.667 0,-133.333c-36.667,-36.667 -96.667,-36.667 -133.333,0l-602.083,602.083c-23.75,23.75 -64.583,7.083 -64.583,-26.667c0,-282.917 112.5,-554.167 312.5,-754.167l432.5,-432.917c120.417,-120.417 284.167,-188.333 455,-188.333Z" style="fill:#2a4c7e;fill-rule:nonzero;"/></svg>